<svg width="101" height="101" viewBox="0 0 101 101" fill="none" xmlns="http://www.w3.org/2000/svg">
<circle cx="50.5" cy="50.5" r="50.5" fill="#48A240"/>
<path d="M41.1818 44.375C40.9432 43.5455 40.608 42.8125 40.1761 42.1761C39.7443 41.5284 39.2159 40.983 38.5909 40.5398C37.9773 40.0852 37.2727 39.7386 36.4773 39.5C35.6932 39.2614 34.8239 39.142 33.8693 39.142C32.0852 39.142 30.517 39.5852 29.1648 40.4716C27.8239 41.358 26.7784 42.6477 26.0284 44.3409C25.2784 46.0227 24.9034 48.0795 24.9034 50.5114C24.9034 52.9432 25.2727 55.0114 26.0114 56.7159C26.75 58.4205 27.7955 59.7216 29.1477 60.6193C30.5 61.5057 32.0966 61.9489 33.9375 61.9489C35.608 61.9489 37.0341 61.6534 38.2159 61.0625C39.4091 60.4602 40.3182 59.6136 40.9432 58.5227C41.5795 57.4318 41.8977 56.142 41.8977 54.6534L43.3977 54.875H34.3977V49.3182H49.0057V53.7159C49.0057 56.7841 48.358 59.4205 47.0625 61.625C45.767 63.8182 43.983 65.5114 41.7102 66.7045C39.4375 67.8864 36.8352 68.4773 33.9034 68.4773C30.6307 68.4773 27.7557 67.7557 25.2784 66.3125C22.8011 64.858 20.8693 62.7955 19.483 60.125C18.108 57.4432 17.4205 54.2614 17.4205 50.5795C17.4205 47.75 17.8295 45.2273 18.6477 43.0114C19.4773 40.7841 20.6364 38.8977 22.125 37.3523C23.6136 35.8068 25.3466 34.6307 27.3239 33.8239C29.3011 33.017 31.4432 32.6136 33.75 32.6136C35.7273 32.6136 37.5682 32.9034 39.2727 33.483C40.9773 34.0511 42.4886 34.858 43.8068 35.9034C45.1364 36.9489 46.2216 38.1932 47.0625 39.6364C47.9034 41.0682 48.4432 42.6477 48.6818 44.375H41.1818ZM59.7784 33.0909L68.2159 59.6136H68.5398L76.9943 33.0909H85.1761L73.142 68H63.6307L51.5795 33.0909H59.7784Z" fill="white"/>
</svg>
